problem 1
p 0
attrib

attribute 6
a 1 6 Coil 1 0 0 1 0 0 0 0
local_cs
  b_origin
  x    0.00000000000000e+00 y    0.00000000000000e+00 z    0.00000000000000e+00
  b_new_x
  x    1.00000000000000e+00 y    0.00000000000000e+00 z    0.00000000000000e+00
  b_new_y
  x    0.00000000000000e+00 y    1.00000000000000e+00 z    0.00000000000000e+00
  b_type CARTESIAN
mu
v   9.99991000000000e-01 v   9.99991000000000e-01 v   9.99991000000000e-01
stacking none
v 0
cond
v   5.80000000000000e+07 v   5.80000000000000e+07 v   5.80000000000000e+07
current
v 0.00000000000000e+00 v 0.00000000000000e+00 v 0.00000000000000e+00
Hc
v   0.00000000000000e+00 x0 0 x1 0 x2 0
a 2 52 Cylinder1 1 0 0 1 0 0 0 0
local_cs
  b_origin
  x    0.00000000000000e+00 y    0.00000000000000e+00 z    0.00000000000000e+00
  b_new_x
  x    1.00000000000000e+00 y    0.00000000000000e+00 z    0.00000000000000e+00
  b_new_y
  x    0.00000000000000e+00 y    1.00000000000000e+00 z    0.00000000000000e+00
  b_type CARTESIAN
mu
v   4.00000000000000e+03 v   4.00000000000000e+03 v   4.00000000000000e+03
stacking none
v 0
cond
v   1.03000000000000e+07 v   1.03000000000000e+07 v   1.03000000000000e+07
current
v 0.00000000000000e+00 v 0.00000000000000e+00 v 0.00000000000000e+00
Hc
v   0.00000000000000e+00 x0 0 x1 0 x2 0
a 3 93 Region 1 0 0 1 0 0 0 0
local_cs
  b_origin
  x    0.00000000000000e+00 y    0.00000000000000e+00 z    0.00000000000000e+00
  b_new_x
  x    1.00000000000000e+00 y    0.00000000000000e+00 z    0.00000000000000e+00
  b_new_y
  x    0.00000000000000e+00 y    1.00000000000000e+00 z    0.00000000000000e+00
  b_type CARTESIAN
mu
v   1.00000040000000e+00 v   1.00000040000000e+00 v   1.00000040000000e+00
stacking none
v 0
cond
v   0.00000000000000e+00 v   0.00000000000000e+00 v   0.00000000000000e+00
current
v 0.00000000000000e+00 v 0.00000000000000e+00 v 0.00000000000000e+00
Hc
v   0.00000000000000e+00 x0 0 x1 0 x2 0
a 4 130 Coil_1 1 0 0 1 0 0 0 0
local_cs
  b_origin
  x    0.00000000000000e+00 y    0.00000000000000e+00 z    0.00000000000000e+00
  b_new_x
  x    1.00000000000000e+00 y    0.00000000000000e+00 z    0.00000000000000e+00
  b_new_y
  x    0.00000000000000e+00 y    1.00000000000000e+00 z    0.00000000000000e+00
  b_type CARTESIAN
mu
v   9.99991000000000e-01 v   9.99991000000000e-01 v   9.99991000000000e-01
stacking none
v 0
cond
v   5.80000000000000e+07 v   5.80000000000000e+07 v   5.80000000000000e+07
current
v 0.00000000000000e+00 v 0.00000000000000e+00 v 0.00000000000000e+00
Hc
v   0.00000000000000e+00 x0 0 x1 0 x2 0
a 5 405 Coil_1_1 1 0 0 1 0 0 0 0
local_cs
  b_origin
  x    0.00000000000000e+00 y    0.00000000000000e+00 z    0.00000000000000e+00
  b_new_x
  x    1.00000000000000e+00 y    0.00000000000000e+00 z    0.00000000000000e+00
  b_new_y
  x    0.00000000000000e+00 y    1.00000000000000e+00 z    0.00000000000000e+00
  b_type CARTESIAN
mu
v   9.99991000000000e-01 v   9.99991000000000e-01 v   9.99991000000000e-01
stacking none
v 0
cond
v   5.80000000000000e+07 v   5.80000000000000e+07 v   5.80000000000000e+07
current
v 0.00000000000000e+00 v 0.00000000000000e+00 v 0.00000000000000e+00
Hc
v   0.00000000000000e+00 x0 0 x1 0 x2 0
a 6 0 background 0 0 0 1 0 0 0 0
local_cs
  b_origin
  x    0.00000000000000e+00 y    0.00000000000000e+00 z    0.00000000000000e+00
  b_new_x
  x    1.00000000000000e+00 y    0.00000000000000e+00 z    0.00000000000000e+00
  b_new_y
  x    0.00000000000000e+00 y    1.00000000000000e+00 z    0.00000000000000e+00
  b_type CARTESIAN
mu
v   1.00000000000000e+00 v   1.00000000000000e+00 v   1.00000000000000e+00
stacking none
v 0
cond
v   0.00000000000000e+00 v   0.00000000000000e+00 v   0.00000000000000e+00
current
v 0.00000000000000e+00 v 0.00000000000000e+00 v 0.00000000000000e+00
Hc
v   0.00000000000000e+00 x0 0 x1 0 x2 0
end_attribute

bound_types
bound_type 7
b_t 1 neuman neumann
nonTerminal
b_t 2 Insulating1 neumann
         cInsulation
b_t 3 Insulating2 neumann
         cInsulation
b_t 4 Insulating3 neumann
         cInsulation
b_t 5 Current1  neumann
         jBranch    2.00000000000000e+02 3
         direction  -0.00000000000000e+00  -1.00000000000000e+00  -0.00000000000000e+00
         renorm 0.000000e+00
b_t 6 Current2  neumann
         jBranch    2.00000000000000e+02 3
         direction  -0.00000000000000e+00  -5.00000000000000e-01  -8.66025403784439e-01
         renorm 0.000000e+00
b_t 7 Current3  neumann
         jBranch    2.00000000000000e+02 3
         direction  -0.00000000000000e+00  -5.00000000000000e-01   8.66025403784439e-01
         renorm 0.000000e+00
end_bound_type

bound_opers
bound_ops      16
b_op_init
b_op_face Insulating1 9 1
b_op_face Insulating1 8 1
b_op_face Insulating1 7 1
b_op_face Insulating1 39 1
b_op_face Insulating2 133 1
b_op_face Insulating2 132 1
b_op_face Insulating2 131 1
b_op_face Insulating2 134 1
b_op_face Insulating3 408 1
b_op_face Insulating3 407 1
b_op_face Insulating3 406 1
b_op_face Insulating3 409 1
b_op_face Current1 63 1
b_op_face Current2 142 1
b_op_face Current3 425 1
end_bound_ops

end_bound_info

end_problem
